<svg width="150" height="25" viewBox="0 0 150 25" fill="none" xmlns="http://www.w3.org/2000/svg">
<path d="M42.6292 19.0182H39.4415V17.7734C38.766 18.6406 37.4613 19.2747 35.8559 19.2747C34.1579 19.2747 32.7607 18.6872 31.6642 17.5402C30.5954 16.3886 30.0587 14.864 30.0587 12.9664C30.0587 11.0641 30.5954 9.53949 31.6642 8.39253C32.756 7.2409 34.1533 6.6581 35.8559 6.6581C37.3688 6.6581 38.5115 7.08238 39.2564 7.94959V0.788086H42.6339V19.0182H42.6292ZM33.5055 12.9664C33.5055 15.1018 34.6715 16.3233 36.4157 16.3233C38.1137 16.3233 39.2564 15.1717 39.2564 13.2275V12.6866C39.2564 10.7844 38.1137 9.59077 36.4157 9.59077C34.6668 9.58611 33.5055 10.831 33.5055 12.9664Z" fill="white"/>
<path d="M57.231 14.0438H48.9633C49.0327 15.5684 49.9626 16.5055 51.4755 16.5055C52.6877 16.5055 53.4326 16.058 53.687 15.1674L57.1107 15.3306C56.9025 16.4822 56.2733 17.4427 55.2231 18.17C54.2006 18.8974 52.9884 19.2704 51.568 19.2704C49.7035 19.2704 48.1906 18.7062 47.0525 17.5593C45.9097 16.4076 45.3545 14.883 45.3545 12.9621C45.3545 11.0132 45.9143 9.48857 47.0525 8.36492C48.1952 7.2133 49.6619 6.65381 51.4755 6.65381C53.2197 6.65381 54.617 7.19465 55.6672 8.27168C56.7128 9.32539 57.2264 10.8034 57.2264 12.6823V14.0438H57.231ZM48.9633 11.7685H53.8073C53.7379 10.2439 52.9468 9.33005 51.457 9.33005C49.9904 9.33005 49.0604 10.2439 48.9633 11.7685Z" fill="white"/>
<path d="M69.2469 7.9221C70.2925 8.766 70.9448 9.91762 71.1577 11.349L67.8265 11.6287C67.6646 10.3839 66.7578 9.58659 65.4531 9.58659C63.8476 9.58659 62.728 10.8315 62.728 12.9669C62.728 15.0556 63.8476 16.3238 65.4531 16.3238C66.7809 16.3238 67.6646 15.5732 67.8496 14.3516L71.1577 14.6547C70.9263 16.086 70.2971 17.2097 69.2469 18.0349C68.2013 18.8555 66.9428 19.2798 65.4531 19.2798C63.6348 19.2798 62.145 18.7156 61.0069 17.592C59.8641 16.4404 59.2858 14.9158 59.2858 12.9715C59.2858 11.0226 59.8687 9.47469 61.0069 8.35104C62.1496 7.22273 63.6394 6.66324 65.4531 6.66324C66.9428 6.65391 68.1966 7.07819 69.2469 7.9221Z" fill="white"/>
<path d="M77.1165 11.204L81.0029 6.88656H85.1252L80.5865 12.0712L85.449 19.0182H81.3267L78.1853 14.6309L77.1165 15.8058V19.0182H73.7159V0.788086H77.1165V11.204Z" fill="white"/>
<path d="M91.4361 9.84708L91.413 14.351C91.413 15.5959 92.181 16.1833 93.2313 16.1833C93.4857 16.1833 93.8373 16.1367 94.2769 16.0668V19.1113C93.6245 19.2046 92.9953 19.2512 92.3892 19.2512C89.6641 19.2512 87.9893 17.8898 88.0124 15.1669L88.0356 9.84242H85.8472V6.88643H88.0587L88.0818 2.87207H91.4824L91.4593 6.88643H94.2769V9.84242H91.4361V9.84708Z" fill="white"/>
<path d="M107.014 17.5403C105.825 18.692 104.289 19.2748 102.429 19.2748C100.569 19.2748 99.0281 18.6873 97.8205 17.5403C96.6315 16.3654 96.03 14.8408 96.03 12.9665C96.03 11.0642 96.6361 9.53959 97.8205 8.39263C99.0327 7.24101 100.569 6.6582 102.429 6.6582C104.289 6.6582 105.829 7.24567 107.014 8.39263C108.226 9.54425 108.832 11.0689 108.832 12.9665C108.827 14.8408 108.221 16.3701 107.014 17.5403ZM102.424 9.58622C101.54 9.58622 100.819 9.88927 100.282 10.5001C99.7452 11.0875 99.4676 11.9081 99.4676 12.9618C99.4676 14.0155 99.7452 14.8408 100.282 15.4236C100.819 16.0111 101.54 16.3141 102.424 16.3141C103.308 16.3141 104.029 16.0111 104.566 15.4236C105.103 14.8361 105.38 14.0155 105.38 12.9618C105.38 11.9081 105.103 11.0829 104.566 10.5001C104.034 9.89394 103.312 9.58622 102.424 9.58622Z" fill="white"/>
<path d="M122.494 8.3929C123.591 9.54452 124.123 11.0691 124.123 12.9668C124.123 14.869 123.586 16.3936 122.494 17.5406C121.426 18.6922 120.029 19.275 118.303 19.275C116.836 19.275 115.693 18.8508 114.925 17.9835V25.0005H111.525V6.89159H114.736V8.15511C115.481 7.14803 116.67 6.65381 118.298 6.65381C120.029 6.65381 121.426 7.24128 122.494 8.3929ZM114.93 12.687V13.2512C114.93 15.1534 116.073 16.347 117.771 16.347C119.515 16.347 120.681 15.1022 120.681 12.9668C120.681 10.8314 119.515 9.58648 117.771 9.58648C116.073 9.58648 114.93 10.7847 114.93 12.687Z" fill="white"/>
<path d="M137.494 19.0181H134.278V17.7966C133.672 18.7803 132.627 19.2746 131.16 19.2746C128.389 19.2746 126.714 17.4935 126.714 14.5095V6.89111H130.114V13.7869C130.114 15.3115 130.767 16.0854 132.048 16.0854C133.33 16.0854 134.098 15.1483 134.098 13.7402V6.89111H137.499V19.0181H137.494Z" fill="white"/>
<path d="M149.833 10.5749L146.456 10.7614C146.41 9.77764 145.896 9.28342 144.92 9.28342C144.013 9.28342 143.546 9.6331 143.546 10.3138C143.546 10.6915 143.708 10.9246 144.059 11.0878C144.457 11.2976 145.105 11.4421 145.901 11.6519C148.672 12.3793 150 13.1999 150 15.242C150 17.7504 148.158 19.2797 145.063 19.2797C141.991 19.2797 140.196 17.8716 139.942 15.3399L143.342 15.1534C143.388 16.1605 143.971 16.6547 145.086 16.6547C146.016 16.6547 146.599 16.2305 146.599 15.5544C146.599 14.8271 146.178 14.6173 144.411 14.1697C143.176 13.8666 142.643 13.6987 141.801 13.3258C140.682 12.7383 140.242 11.9876 140.15 10.4863C140.15 8.14112 141.968 6.66313 144.971 6.66313C147.922 6.6538 149.625 8.22504 149.833 10.5749Z" fill="white"/>
<path d="M10.4653 23.121L10.345 16.2906C11.1685 16.2766 11.8671 16.1554 12.4084 15.9362C12.9683 15.7124 13.4356 15.4047 13.8334 15.0037C14.2313 14.6028 14.5367 14.1319 14.7588 13.5677C14.9947 12.9756 15.1058 12.3135 15.1058 11.5442C15.1058 10.7935 14.9901 10.1175 14.7588 9.53935C14.5367 8.97986 14.2313 8.50895 13.8288 8.10332C13.4309 7.70235 12.9636 7.39463 12.4038 7.17083C11.8162 6.93305 11.1593 6.82115 10.4005 6.82115H3.5531V0H10.4005C12.0152 0 13.5327 0.279746 14.9161 0.839239C16.3272 1.40806 17.5764 2.22865 18.622 3.28702C19.6676 4.34073 20.4865 5.59493 21.0463 7.00765C21.6015 8.39705 21.8791 9.92633 21.8791 11.5535C21.8791 13.1807 21.6015 14.71 21.0463 16.1041C20.4819 17.5261 19.6676 18.785 18.6174 19.8433C17.5671 20.9017 16.3226 21.7223 14.9114 22.2911C13.5929 22.818 12.1355 23.0931 10.4653 23.121Z" fill="white"/>
<path d="M7.98554 18.9853C7.93465 16.808 6.16728 15.0596 3.99277 15.0596C1.78587 15.0596 0 16.8593 0 19.0833C0 21.3072 1.78587 23.1069 3.99277 23.1069H7.98554V18.9853Z" fill="white"/>
</svg>
